<svg width="443" height="384" viewBox="0 0 443 384" fill="none" xmlns="http://www.w3.org/2000/svg">
<path d="M211.126 36.3491L209.786 32.1844C213.647 36.0287 218.05 39.1327 222.814 41.3713C227.492 43.5627 232.318 45.3309 237.247 46.6588C242.25 48.1015 247.234 49.517 252.2 50.9052C254.595 46.3463 256.726 41.6208 258.582 36.7574L255.628 30L261.856 33.8891L270.973 31.0718L280.091 33.8891L286.318 30L283.364 36.7574C285.188 41.6371 287.321 46.3651 289.746 50.9052C294.876 49.6599 300.006 48.4384 305.136 47.2407C310.277 45.9541 315.302 44.1502 320.153 41.8511C324.989 39.535 329.419 36.2758 333.236 32.2253L331.832 36.9718C355.313 48.7922 378.046 56.5466 400.031 60.235C391.132 61.0516 384.075 62.6338 378.86 64.9815C371.566 68.1867 366.239 73.2905 362.877 80.293C360.871 76.2099 357.343 73.0285 352.292 70.7488C347.939 68.8206 343.297 67.8435 338.616 67.8703C334.466 67.837 330.343 68.6035 326.426 70.1364C321.976 71.9125 318.661 74.5223 316.478 77.9656C313.269 71.6097 309.142 68.4283 304.097 68.4215L289.919 77.7615C293.98 81.6336 296.289 85.6792 296.849 89.8983C295.226 86.9687 292.399 84.7945 288.378 83.2838C288.889 85.2437 289.409 87.2341 289.919 89.245C290.457 91.2028 290.763 93.2309 290.831 95.2777C290.831 95.9269 290.788 96.5751 290.703 97.2172C290.591 95.0394 289.874 92.9553 288.652 91.2559C288.141 90.4904 286.828 88.8878 284.74 86.4482C284.74 90.8476 284.74 93.226 284.74 93.5935C284.657 95.9567 284.086 98.2661 283.072 100.341C283.279 96.8905 281.951 92.651 279.088 87.622C273.407 88.3876 270.043 88.7755 269.058 88.7755C266.855 88.809 264.662 88.4188 262.576 87.622C260.145 92.1746 258.929 95.8868 258.929 98.7586V100.627C258.573 99.0546 258.19 97.4622 257.789 95.88C257.383 94.3409 257.162 92.7481 257.133 91.1436L257.324 86.4788C254.671 89.5493 252.638 93.2217 251.361 97.2478L251.106 92.9402C251.282 91.3293 251.672 89.7569 252.264 88.2753C252.775 86.6421 253.303 85.0191 253.86 83.3859C251.428 84.1072 248.541 86.1896 245.198 89.6329C246.104 85.373 248.413 81.5655 252.127 78.2106C251.744 75.3933 250.079 73.0115 247.131 71.0653C244.67 69.4021 241.854 68.5101 238.98 68.4827C236.267 68.5207 233.635 69.5254 231.467 71.3511C229.286 73.1427 227.456 75.4145 226.088 78.0269C224.264 74.5835 221.055 71.9533 216.46 70.1364C212.584 68.6171 208.503 67.8607 204.397 67.9009C195.888 67.9009 187.463 72.0418 179.123 80.3236C176.255 73.1987 171.185 68.0064 163.916 64.7468C158.737 62.4534 151.765 60.9665 143 60.286C167.848 56.3051 190.557 48.3261 211.126 36.3491ZM273.872 45.8422C273.976 46.4029 274.174 46.9364 274.456 47.4142C275.52 47.3598 276.431 46.5942 277.191 45.1175C277.702 43.8211 278.212 42.5554 278.723 41.3101C277.03 42.5697 275.189 43.5591 273.252 44.2499C273.561 44.7233 273.773 45.2669 273.872 45.8422ZM266.505 55.2435C266.768 56.4926 266.918 57.7682 266.952 59.0509C267.006 56.5578 267.574 54.1123 268.612 51.9056H273.298C273.167 52.4686 273.102 53.0487 273.107 53.6306C273.127 54.4948 273.191 55.3571 273.298 56.2132C273.405 57.0727 273.469 57.9383 273.489 58.8059C274.094 56.5323 274.869 54.3196 275.805 52.1914C274.695 51.3229 273.367 50.8725 272.012 50.9052H270.991C269.22 50.845 267.449 51.0614 265.73 51.5483C265.776 51.7627 266.022 53.0386 266.505 55.2435ZM263.998 45.1175C264.357 45.7113 264.822 46.2155 265.363 46.5985C265.904 46.9815 266.511 47.2349 267.144 47.3428C267.042 46.4767 267.248 45.6004 267.718 44.9031C266.91 44.1159 266.026 43.4312 265.083 42.8616C264.873 42.7085 263.934 42.1879 262.266 41.2794C262.737 42.6154 263.317 43.9002 263.998 45.1175Z" fill="black"/>
<path d="M332.154 383.143C332.154 383.143 325.699 350.856 307.774 342.894C307.774 342.894 302.905 342.741 301.583 348.049C301.583 348.049 292.238 326.379 282.491 339.495C282.491 339.495 278.406 307.801 260.5 327.114C260.5 327.114 253.917 308.536 245 317.927C245 317.927 252.376 294.449 271.605 295.47C271.605 295.47 274.769 295.031 280.431 299.012C280.431 299.012 289.548 304.32 287.934 294C287.934 294 295.702 296.654 300.316 310.955C304.929 325.256 310.719 330.86 315.323 332.483C319.928 334.106 323.757 333.81 326.519 336.75C326.519 336.75 328.434 336.015 329.255 326.43C329.255 326.43 329.027 330.839 331.598 333.514C331.751 333.666 331.949 333.75 332.154 333.75C332.359 333.75 332.557 333.666 332.71 333.514C335.281 330.839 335.053 326.43 335.053 326.43C335.91 336.015 337.789 336.75 337.789 336.75C340.524 333.81 344.371 334.096 348.985 332.483C353.598 330.87 359.388 325.256 364.001 310.955C368.615 296.654 376.374 294 376.374 294C374.797 304.32 383.887 299.012 383.887 299.012C389.549 295.031 392.703 295.47 392.703 295.47C411.932 294.449 419.308 317.927 419.308 317.927C410.355 308.485 403.763 327.114 403.763 327.114C385.856 307.801 381.771 339.495 381.771 339.495C372.034 326.379 362.679 348.049 362.679 348.049C361.367 342.741 356.489 342.894 356.489 342.894C338.609 350.856 332.154 383.143 332.154 383.143Z" fill="black"/>
<path d="M243.098 250.488C254.219 219.551 279.222 227.401 279.222 227.401C292.845 205.072 318.185 215.255 318.185 215.255C318.185 215.255 307.155 193.207 287.187 184.322C287.187 184.322 284.054 208.064 253.128 209.512C252.803 209.526 252.479 209.453 252.183 209.3C251.888 209.146 251.629 208.916 251.428 208.629C249.927 206.487 246.573 200.535 246.948 190.413C246.948 190.413 246.445 201.732 242.376 202.794C238.276 201.835 237.44 190.557 237.44 190.557C238.112 200.643 234.949 206.714 233.505 208.9C233.314 209.195 233.063 209.434 232.771 209.597C232.48 209.759 232.158 209.841 231.832 209.834C200.876 209.292 197.035 185.686 197.035 185.686C177.346 195.172 166.988 217.543 166.988 217.543C166.988 217.543 191.999 206.598 206.291 228.504C206.291 228.504 231.018 219.882 243.098 250.488Z" fill="black"/>
<path d="M273.406 134.922C277.965 132.584 282.177 131.972 285.952 133.084C288.375 133.909 290.75 134.901 293.063 136.055C295.47 137.26 297.946 138.283 300.476 139.117C304.743 140.383 308.435 139.954 311.554 137.861L310.405 134.36C314.283 136.34 317.443 140.247 319.887 146.078C321.826 151.182 323.744 156.232 325.64 161.227C328.175 166.575 331.606 169.896 335.934 171.189L339.499 170.352L335.122 158.879L335.624 156.766L336.909 157.011C338.125 157.29 340.629 159.539 344.422 163.758C346.003 163.491 347.502 162.801 348.794 161.748C350.086 160.694 351.132 159.307 351.844 157.705C353.424 154.357 355.023 152.417 356.64 151.887C356.817 153.923 356.817 155.975 356.64 158.011C356.431 160.123 356.793 162.257 357.679 164.136C360.359 161.652 362.487 157.041 364.061 150.304C364.189 149.753 364.38 148.916 364.654 147.773L365.246 145.241C366.117 141.093 367.508 137.103 369.377 133.39C371.635 129.329 374.906 126.096 378.786 124.091C377.99 126.208 379.448 128.44 383.162 130.787C405.561 121.131 424.641 118.62 440.402 123.254L442.462 124.5C437.487 124.412 432.531 125.201 427.774 126.837C421.884 128.953 418.386 132.356 417.28 137.045L418.028 142.924C412.194 142.829 406.373 143.563 400.704 145.109C393.07 147.293 388.706 150.74 387.612 155.449L392.334 161.574C387.697 161.153 383.057 162.359 379.059 165.024C374.951 167.6 371.691 171.587 369.76 176.395C372.258 179.117 373.738 183.326 374.2 189.022L377.61 190.277L375.294 190.594L377.199 192.043L375.877 192.401L374.264 195.463L373.015 191.707L370.197 191.758L368.219 186.776C365.18 185.796 362.894 187.719 361.362 192.544C359.913 192.37 358.427 192.145 356.913 191.87C356.173 191.744 355.417 191.82 354.709 192.092C354.001 192.364 353.362 192.823 352.847 193.432L357.105 199.709L355.199 200.158L356.886 202.547L354.424 201.526L355.053 203.568L352.801 202.149L351.944 203.905L351.825 200.097L349.519 199.423C347.529 198.666 345.819 197.19 344.659 195.228C343.134 192.823 341.406 190.587 339.499 188.552C336.27 185.634 332.491 183.575 328.448 182.53C326.024 181.919 323.529 181.736 321.054 181.989C318.547 182.173 316.067 182.356 313.623 182.571C315.039 177.807 313.954 173.506 310.368 169.668C307.201 166.403 303.298 164.166 299.081 163.197L288.368 160.553L293.273 156.837C291.401 150.509 286.684 146.228 279.123 143.996C275.549 142.948 269.841 142.234 262 141.853C265.829 139.559 269.631 137.249 273.406 134.922ZM353.357 169.75C353.585 168.096 353.731 166.851 353.777 166.004L351.361 165.81L350.394 169.893C351.383 170.001 352.38 169.953 353.357 169.75ZM343.939 172.537C344.454 172.618 344.979 172.533 345.452 172.292C346.115 172.026 346.525 171.873 346.683 171.832C346.966 169.995 346.373 168.852 344.905 168.423C343.984 168.342 343.057 168.45 342.17 168.739C342.498 171.026 343.091 172.312 343.939 172.537Z" fill="black"/>
<path d="M75.6751 84.9172C66.7765 42.1371 47.9762 58.4284 47.9762 58.4284C43.5269 30.3677 26.1489 44.4032 26.1489 44.4032C24.8907 17.6898 0 26.9685 0 26.9685C4.09131 22.9678 8.92406 20.0324 14.1503 18.3737C31.5374 12.4839 33.3609 0 33.3609 0C34.4259 2.77675 35.6439 5.47676 37.0079 8.08443C41.8219 17.2713 48.9244 25.172 58.1787 28.2751C60.7772 29.153 64.3695 30.1737 67.1047 29.7042C67.7286 29.6016 68.3221 29.3358 68.837 28.9284C71.4173 26.8869 71.7455 21.487 71.3808 18.3329C72.1923 25.3659 75.6751 25.3659 75.6751 25.3659C75.6751 25.3659 79.1124 25.3659 79.9239 18.3533C79.5592 21.5075 79.9239 26.8869 82.4677 28.9488C82.9826 29.3562 83.5761 29.622 84.2 29.7246C86.9353 30.1941 90.5275 29.1734 93.126 28.2955C102.38 25.2332 109.483 17.2509 114.288 8.10485C115.652 5.49709 116.87 2.79709 117.935 0.0204118C117.935 0.0204118 119.758 12.4635 137.136 18.3941C142.365 20.0539 147.2 22.9891 151.296 26.9889C151.296 26.9889 126.423 17.7102 125.21 44.4236C125.21 44.4236 107.823 30.3881 103.383 58.4488C103.329 58.4284 84.5282 42.1371 75.6751 84.9172Z" fill="black"/>
<path d="M97.263 223.4C97.263 223.4 91.2728 176.638 77.8063 189.173C77.8063 189.173 74.5969 167.788 56.836 182.079C56.836 182.079 62.5618 154.171 39.6404 151.262C39.6404 151.262 63.0815 122.385 32 101C42.8407 102.919 54.0369 106.441 63.7744 112.137C68.7708 115.056 74.2504 119.006 76.9127 124.774C77.6048 126.152 78.0291 127.678 78.158 129.252C78.2868 130.826 78.1172 132.413 77.6604 133.909C76.7486 136.706 74.7701 138.87 73.7307 141.596C71.5699 147.261 72.9649 156.111 77.323 160.102C83.0579 165.359 87.5711 162.144 87.5711 162.144C86.7497 159.024 86.4959 155.751 86.8248 152.52C87.1537 149.289 88.0585 146.164 89.4858 143.331C89.481 145.438 90.0163 147.502 91.0279 149.279C92.0396 151.056 93.4852 152.47 95.1933 153.355C95.8406 153.739 96.5622 153.94 97.2949 153.94C98.0276 153.94 98.7491 153.739 99.3965 153.355C105.633 149.445 105.113 143.331 105.113 143.331C106.538 146.165 107.441 149.289 107.77 152.52C108.099 155.752 107.847 159.024 107.028 162.144C107.028 162.144 111.541 165.308 117.276 160.102C121.634 156.111 123.02 147.261 120.868 141.596C119.829 138.87 117.868 136.706 116.938 133.909C116.482 132.413 116.312 130.826 116.441 129.252C116.57 127.678 116.994 126.152 117.686 124.774C120.339 119.006 125.828 115.056 130.815 112.137C140.562 106.441 151.786 102.95 162.599 101C131.517 122.385 154.958 151.262 154.958 151.262C132.037 154.171 137.763 182.079 137.763 182.079C119.966 167.788 116.747 189.173 116.747 189.173C103.208 176.628 97.263 223.4 97.263 223.4Z" fill="black"/>
</svg>
